<svg xmlns="http://www.w3.org/2000/svg" width="64" height="32" viewBox="0 0 64 32" shape-rendering="crispEdges">
<rect x="20" y="0" width="4" height="4" fill="rgb(255,255,255)" fill-opacity="1.000" />
<rect x="36" y="0" width="4" height="4" fill="rgb(255,255,255)" fill-opacity="1.000" />
<rect x="8" y="4" width="4" height="4" fill="rgb(255,255,255)" fill-opacity="1.000" />
<rect x="24" y="4" width="4" height="4" fill="rgb(255,255,255)" fill-opacity="1.000" />
<rect x="32" y="4" width="4" height="4" fill="rgb(255,255,255)" fill-opacity="1.000" />
<rect x="48" y="4" width="4" height="4" fill="rgb(255,255,255)" fill-opacity="1.000" />
<rect x="12" y="8" width="4" height="4" fill="rgb(255,255,255)" fill-opacity="1.000" />
<rect x="44" y="8" width="4" height="4" fill="rgb(255,255,255)" fill-opacity="1.000" />
<rect x="16" y="12" width="4" height="4" fill="rgb(255,255,255)" fill-opacity="1.000" />
<rect x="40" y="12" width="4" height="4" fill="rgb(255,255,255)" fill-opacity="1.000" />
<rect x="4" y="16" width="8" height="4" fill="rgb(255,255,255)" fill-opacity="1.000" />
<rect x="48" y="16" width="8" height="4" fill="rgb(255,255,255)" fill-opacity="1.000" />
<rect x="16" y="20" width="4" height="4" fill="rgb(255,255,255)" fill-opacity="1.000" />
<rect x="40" y="20" width="4" height="4" fill="rgb(255,255,255)" fill-opacity="1.000" />
<rect x="12" y="24" width="4" height="4" fill="rgb(255,255,255)" fill-opacity="1.000" />
<rect x="24" y="24" width="4" height="4" fill="rgb(255,255,255)" fill-opacity="1.000" />
<rect x="32" y="24" width="4" height="4" fill="rgb(255,255,255)" fill-opacity="1.000" />
<rect x="44" y="24" width="4" height="4" fill="rgb(255,255,255)" fill-opacity="1.000" />
<rect x="8" y="28" width="4" height="4" fill="rgb(255,255,255)" fill-opacity="1.000" />
<rect x="20" y="28" width="4" height="4" fill="rgb(255,255,255)" fill-opacity="1.000" />
<rect x="36" y="28" width="4" height="4" fill="rgb(255,255,255)" fill-opacity="1.000" />
<rect x="48" y="28" width="4" height="4" fill="rgb(255,255,255)" fill-opacity="1.000" />
</svg>
