<svg xmlns="http://www.w3.org/2000/svg" width="64" height="32" viewBox="0 0 64 32" shape-rendering="crispEdges">
<rect x="28" y="0" width="8" height="4" fill="rgb(255,255,255)" fill-opacity="1.000" />
<rect x="24" y="4" width="16" height="4" fill="rgb(255,255,255)" fill-opacity="1.000" />
<rect x="20" y="8" width="24" height="4" fill="rgb(255,255,255)" fill-opacity="1.000" />
<rect x="16" y="12" width="8" height="4" fill="rgb(255,255,255)" fill-opacity="1.000" />
<rect x="28" y="12" width="8" height="4" fill="rgb(255,255,255)" fill-opacity="1.000" />
<rect x="40" y="12" width="8" height="4" fill="rgb(255,255,255)" fill-opacity="1.000" />
<rect x="16" y="16" width="32" height="4" fill="rgb(255,255,255)" fill-opacity="1.000" />
<rect x="24" y="20" width="4" height="4" fill="rgb(255,255,255)" fill-opacity="1.000" />
<rect x="36" y="20" width="4" height="4" fill="rgb(255,255,255)" fill-opacity="1.000" />
<rect x="20" y="24" width="4" height="4" fill="rgb(255,255,255)" fill-opacity="1.000" />
<rect x="28" y="24" width="8" height="4" fill="rgb(255,255,255)" fill-opacity="1.000" />
<rect x="40" y="24" width="4" height="4" fill="rgb(255,255,255)" fill-opacity="1.000" />
<rect x="16" y="28" width="4" height="4" fill="rgb(255,255,255)" fill-opacity="1.000" />
<rect x="24" y="28" width="4" height="4" fill="rgb(255,255,255)" fill-opacity="1.000" />
<rect x="36" y="28" width="4" height="4" fill="rgb(255,255,255)" fill-opacity="1.000" />
<rect x="44" y="28" width="4" height="4" fill="rgb(255,255,255)" fill-opacity="1.000" />
</svg>
