<svg xmlns="http://www.w3.org/2000/svg" width="96" height="32" viewBox="0 0 96 32" shape-rendering="crispEdges">
<rect x="12" y="0" width="4" height="4" fill="rgb(255,255,255)" fill-opacity="1.000" />
<rect x="24" y="0" width="4" height="4" fill="rgb(255,255,255)" fill-opacity="1.000" />
<rect x="32" y="0" width="4" height="4" fill="rgb(255,255,255)" fill-opacity="1.000" />
<rect x="60" y="0" width="4" height="4" fill="rgb(255,255,255)" fill-opacity="1.000" />
<rect x="68" y="0" width="4" height="4" fill="rgb(255,255,255)" fill-opacity="1.000" />
<rect x="80" y="0" width="4" height="4" fill="rgb(255,255,255)" fill-opacity="1.000" />
<rect x="16" y="4" width="4" height="4" fill="rgb(255,255,255)" fill-opacity="1.000" />
<rect x="52" y="4" width="8" height="4" fill="rgb(255,255,255)" fill-opacity="1.000" />
<rect x="76" y="4" width="4" height="4" fill="rgb(255,255,255)" fill-opacity="1.000" />
<rect x="4" y="8" width="4" height="4" fill="rgb(255,255,255)" fill-opacity="1.000" />
<rect x="12" y="8" width="4" height="4" fill="rgb(255,255,255)" fill-opacity="1.000" />
<rect x="28" y="8" width="16" height="4" fill="rgb(255,255,255)" fill-opacity="1.000" />
<rect x="56" y="8" width="8" height="4" fill="rgb(255,255,255)" fill-opacity="1.000" />
<rect x="24" y="12" width="28" height="4" fill="rgb(255,255,255)" fill-opacity="1.000" />
<rect x="60" y="12" width="12" height="4" fill="rgb(255,255,255)" fill-opacity="1.000" />
<rect x="80" y="12" width="4" height="4" fill="rgb(255,255,255)" fill-opacity="1.000" />
<rect x="20" y="16" width="12" height="4" fill="rgb(255,255,255)" fill-opacity="1.000" />
<rect x="36" y="16" width="4" height="4" fill="rgb(255,255,255)" fill-opacity="1.000" />
<rect x="44" y="16" width="4" height="4" fill="rgb(255,255,255)" fill-opacity="1.000" />
<rect x="52" y="16" width="4" height="4" fill="rgb(255,255,255)" fill-opacity="1.000" />
<rect x="64" y="16" width="12" height="4" fill="rgb(255,255,255)" fill-opacity="1.000" />
<rect x="84" y="16" width="4" height="4" fill="rgb(255,255,255)" fill-opacity="1.000" />
<rect x="12" y="20" width="4" height="4" fill="rgb(255,255,255)" fill-opacity="1.000" />
<rect x="28" y="20" width="20" height="4" fill="rgb(255,255,255)" fill-opacity="1.000" />
<rect x="60" y="20" width="8" height="4" fill="rgb(255,255,255)" fill-opacity="1.000" />
<rect x="4" y="24" width="4" height="4" fill="rgb(255,255,255)" fill-opacity="1.000" />
<rect x="32" y="24" width="4" height="4" fill="rgb(255,255,255)" fill-opacity="1.000" />
<rect x="40" y="24" width="4" height="4" fill="rgb(255,255,255)" fill-opacity="1.000" />
<rect x="56" y="24" width="8" height="4" fill="rgb(255,255,255)" fill-opacity="1.000" />
<rect x="76" y="24" width="4" height="4" fill="rgb(255,255,255)" fill-opacity="1.000" />
<rect x="12" y="28" width="4" height="4" fill="rgb(255,255,255)" fill-opacity="1.000" />
<rect x="28" y="28" width="4" height="4" fill="rgb(255,255,255)" fill-opacity="1.000" />
<rect x="44" y="28" width="4" height="4" fill="rgb(255,255,255)" fill-opacity="1.000" />
<rect x="64" y="28" width="4" height="4" fill="rgb(255,255,255)" fill-opacity="1.000" />
</svg>
